<svg width="60" height="60" viewBox="0 0 60 60" fill="none" xmlns="http://www.w3.org/2000/svg">
<rect width="60" height="60" rx="6" fill="#EBF4EF"/>
<path d="M37.7839 21.5995C38.9413 21.5997 39.8826 22.5417 39.8826 23.6992V44.4081C39.8826 45.5656 38.9413 46.5076 37.7839 46.5078H22.2166C21.0591 46.5078 20.1169 45.5656 20.1169 44.4081V23.6992C20.1169 22.5417 21.0591 21.5995 22.2166 21.5995H37.7839ZM22.2166 22.9745C21.8171 22.9745 21.4919 23.2997 21.4919 23.6992V44.4081C21.4919 44.8076 21.8171 45.1328 22.2166 45.1328H37.7839C38.1833 45.1326 38.5085 44.8075 38.5085 44.4081V23.6992C38.5085 23.2998 38.1833 22.9747 37.7839 22.9745H22.2166Z" fill="#226139" stroke="#226139" stroke-width="0.25"/>
<path d="M26.8928 18.0451C27.2722 18.0452 27.5803 18.3532 27.5803 18.7326V22.2873C27.5801 22.6666 27.2721 22.9737 26.8928 22.9738C26.5135 22.9738 26.2055 22.6666 26.2053 22.2873V18.7326L26.219 18.5939C26.2831 18.2808 26.5608 18.0451 26.8928 18.0451ZM33.1077 18.0451C33.487 18.0453 33.7952 18.3532 33.7952 18.7326V22.2873C33.795 22.6665 33.4869 22.9737 33.1077 22.9738C32.7283 22.9738 32.4204 22.6666 32.4202 22.2873V18.7326C32.4202 18.3531 32.7282 18.0451 33.1077 18.0451Z" fill="#226139" stroke="#226139" stroke-width="0.25"/>
<path d="M35.8983 21.5988C36.2778 21.5988 36.5858 21.9068 36.5858 22.2863V37.3488C36.5858 40.5985 33.9536 43.2314 30.703 43.2316H29.2977C26.047 43.2316 23.414 40.5995 23.4139 37.3488V22.2863C23.4139 21.9068 23.7219 21.5988 24.1014 21.5988C24.4809 21.5988 24.7889 21.9068 24.7889 22.2863V37.3488C24.789 39.834 26.8116 41.8576 29.2977 41.8576H30.703C33.1881 41.8574 35.2118 39.8348 35.2118 37.3488V22.2863C35.2118 21.9069 35.519 21.5989 35.8983 21.5988ZM33.5653 13.4923C34.6418 13.4923 35.5193 14.3679 35.5194 15.4454V18.7325C35.5193 19.1119 35.2112 19.4199 34.8319 19.42H25.1688C24.7894 19.42 24.4814 19.112 24.4813 18.7325V15.4454C24.4814 14.3689 25.3569 13.4923 26.4344 13.4923H33.5653ZM26.4344 14.8683C26.116 14.8683 25.8564 15.127 25.8563 15.4454L25.8553 18.045H34.1434V15.4454C34.1433 15.127 33.8838 14.8683 33.5653 14.8683H26.4344Z" fill="#226139" stroke="#226139" stroke-width="0.25"/>
<path d="M31.3611 15.7687C31.7405 15.7689 32.0486 16.0768 32.0486 16.4562C32.0485 16.8354 31.7415 17.1436 31.3611 17.1437H28.6384C28.259 17.1437 27.951 16.8357 27.9509 16.4562C27.9509 16.0767 28.2589 15.7687 28.6384 15.7687H31.3611Z" fill="#226139" stroke="#226139" stroke-width="0.25"/>
</svg>
